<svg xmlns="http://www.w3.org/2000/svg" width="100%" height="100%" viewBox="0 0 1920 1080" preserveAspectRatio="xMinYMin meet" style="display:block;max-width:1920px;" font-family="'Comic Sans MS', 'Segoe Print', cursive, sans-serif">
<rect x="0" y="0" width="1920" height="1080" fill="#ffffff"/>
<rect x="0" y="0" width="1920" height="34" fill="#f0f0f0"/><text x="16" y="23" font-size="16" fill="#555555">WIREFRAME — baja fidelidad · Pantalla 31 · Solicitudes de contraseña</text><rect x="0" y="34" width="280" height="1046" fill="#fafafa" stroke="#8a8a8a" stroke-width="2"/><rect x="24" y="66" width="44" height="44" rx="8" fill="#efefef" stroke="#8a8a8a" stroke-width="2"/><text x="78" y="94" font-size="24" fill="#4d4d4d">UICM</text><line x1="24" y1="130" x2="256" y2="130" stroke="#c9c9c9" stroke-width="2"/><rect x="16" y="138" width="248" height="46" rx="6" fill="#e2e2e2" stroke="#8a8a8a" stroke-width="2"/><text x="34" y="168" font-size="20" fill="#333333">● Inicio</text><text x="34" y="216" font-size="20" fill="#555555">○ Aspirantes</text><text x="34" y="264" font-size="20" fill="#555555">○ Alumnos</text><text x="34" y="312" font-size="20" fill="#555555">○ Profesores</text><text x="34" y="360" font-size="20" fill="#555555">○ Grupos</text><text x="34" y="408" font-size="20" fill="#555555">○ Materias</text><text x="328" y="76" font-size="15" fill="#8a8a8a">ADMINISTRACIÓN</text><text x="328" y="100" font-size="34" fill="#333333">Solicitudes de contraseña</text><rect x="328" y="170" width="140" height="42" rx="21" fill="#e2e2e2" stroke="#8a8a8a" stroke-width="2"/><text x="360" y="197" font-size="15" fill="#333333">Alumnos</text><rect x="480" y="170" width="160" height="42" rx="21" fill="#ffffff" stroke="#8a8a8a" stroke-width="2"/><text x="512" y="197" font-size="15" fill="#666666">Profesores</text><rect x="328" y="240" width="1544" height="220" rx="10" fill="#ffffff" stroke="#8a8a8a" stroke-width="2"/><rect x="328" y="240" width="1544" height="52" fill="#efefef"/><text x="352" y="272" font-size="15" fill="#666666">NOMBRE</text><text x="738" y="272" font-size="15" fill="#666666">CORREO</text><text x="1124" y="272" font-size="15" fill="#666666">FECHA DE SOLICITUD</text><text x="1510" y="272" font-size="15" fill="#666666">ACCIONES</text><line x1="328" y1="292" x2="1872" y2="292" stroke="#e2e2e2" stroke-width="1.5"/><text x="352" y="326" font-size="16" fill="#555555">Diana Martínez López</text><text x="738" y="326" font-size="16" fill="#555555">diana.ml@gmail.com</text><text x="1124" y="326" font-size="16" fill="#555555">26/07/2026</text><text x="1510" y="326" font-size="15" fill="#8a8a8a">Atender</text><line x1="328" y1="348" x2="1872" y2="348" stroke="#e2e2e2" stroke-width="1.5"/><text x="352" y="382" font-size="16" fill="#555555">Jorge Salinas Cano</text><text x="738" y="382" font-size="16" fill="#555555">jorge.sc@gmail.com</text><text x="1124" y="382" font-size="16" fill="#555555">25/07/2026</text><text x="1510" y="382" font-size="15" fill="#8a8a8a">Atender</text><text x="352" y="438" fill="#bbbbbb" font-size="16">…</text><text x="328" y="1050" font-size="15" fill="#9a9a9a">Nota: en el sistema real esta pantalla tiene 3 variantes por tipo de cuenta (alumnos/profesores/administrativos); aquí se muestra 1 con selector de pestañas.</text>
</svg>
