<svg xmlns="http://www.w3.org/2000/svg" width="100%" height="100%" viewBox="0 0 1920 1080" preserveAspectRatio="xMinYMin meet" style="display:block;max-width:1920px;" font-family="'Comic Sans MS', 'Segoe Print', cursive, sans-serif">
<rect x="0" y="0" width="1920" height="1080" fill="#ffffff"/>
<rect x="0" y="0" width="1920" height="34" fill="#f0f0f0"/><text x="16" y="23" font-size="16" fill="#555555">WIREFRAME — baja fidelidad · Pantalla 10 · Dashboard (patrón compartido: Admin, Control Escolar, Finanzas, Coordinación, Profesor, Alumno)</text><rect x="0" y="34" width="280" height="1046" fill="#fafafa" stroke="#8a8a8a" stroke-width="2"/><rect x="24" y="66" width="44" height="44" rx="8" fill="#efefef" stroke="#8a8a8a" stroke-width="2"/><text x="78" y="94" font-size="24" fill="#4d4d4d">UICM</text><line x1="24" y1="130" x2="256" y2="130" stroke="#c9c9c9" stroke-width="2"/><rect x="16" y="138" width="248" height="46" rx="6" fill="#e2e2e2" stroke="#8a8a8a" stroke-width="2"/><text x="34" y="168" font-size="20" fill="#333333">● Inicio</text><text x="34" y="216" font-size="20" fill="#555555">○ Documentos</text><text x="34" y="264" font-size="20" fill="#555555">○ Finanzas</text><text x="34" y="312" font-size="20" fill="#555555">○ Historial académico</text><text x="34" y="360" font-size="20" fill="#555555">○ Horario</text><text x="34" y="408" font-size="20" fill="#555555">○ Materias</text><text x="328" y="76" font-size="15" fill="#8a8a8a">PORTAL DEL [ROL]</text><text x="328" y="100" font-size="34" fill="#333333">¡Hola, [Nombre]!</text><rect x="1680" y="88" width="200" height="42" rx="21" fill="#f2f2f2" stroke="#8a8a8a" stroke-width="2"/><text x="1710" y="115" font-size="16" fill="#555555">Sesión activa</text><rect x="328" y="184" width="368" height="170" rx="10" fill="#ffffff" stroke="#8a8a8a" stroke-width="2"/><rect x="328" y="184" width="368" height="8" fill="#c9c9c9"/><rect x="352" y="216" width="52" height="52" rx="10" fill="#efefef" stroke="#8a8a8a" stroke-width="1.5"/><text x="352" y="322" font-size="42" fill="#333333" font-weight="bold">6</text><text x="352" y="346" font-size="14" fill="#8a8a8a">MATERIAS INSCRITAS</text><rect x="720" y="184" width="368" height="170" rx="10" fill="#ffffff" stroke="#8a8a8a" stroke-width="2"/><rect x="720" y="184" width="368" height="8" fill="#c9c9c9"/><rect x="744" y="216" width="52" height="52" rx="10" fill="#efefef" stroke="#8a8a8a" stroke-width="1.5"/><text x="744" y="322" font-size="42" fill="#333333" font-weight="bold">8.5</text><text x="744" y="346" font-size="14" fill="#8a8a8a">PROMEDIO GENERAL</text><rect x="1112" y="184" width="368" height="170" rx="10" fill="#ffffff" stroke="#8a8a8a" stroke-width="2"/><rect x="1112" y="184" width="368" height="8" fill="#c9c9c9"/><rect x="1136" y="216" width="52" height="52" rx="10" fill="#efefef" stroke="#8a8a8a" stroke-width="1.5"/><text x="1136" y="322" font-size="42" fill="#333333" font-weight="bold">48</text><text x="1136" y="346" font-size="14" fill="#8a8a8a">CRÉDITOS ACUMULADOS</text><rect x="1504" y="184" width="368" height="170" rx="10" fill="#ffffff" stroke="#8a8a8a" stroke-width="2"/><rect x="1504" y="184" width="368" height="8" fill="#c9c9c9"/><rect x="1528" y="216" width="52" height="52" rx="10" fill="#efefef" stroke="#8a8a8a" stroke-width="1.5"/><text x="1528" y="322" font-size="42" fill="#333333" font-weight="bold">1</text><text x="1528" y="346" font-size="14" fill="#8a8a8a">PAGO PENDIENTE</text><rect x="328" y="392" width="498.667" height="400" rx="10" fill="#ffffff" stroke="#8a8a8a" stroke-width="2"/><rect x="328" y="392" width="498.667" height="8" fill="#c9c9c9"/><line x1="328" y1="452" x2="826.667" y2="452" stroke="#d6d6d6" stroke-width="2"/><text x="352" y="430" font-size="18" fill="#4d4d4d">Calificaciones recientes</text><text x="802.667" y="430" font-size="14" fill="#8a8a8a" text-anchor="end">Ver todas →</text><text x="352" y="490" font-size="16" fill="#666666">Estadística I</text><rect x="708.667" y="469" width="70" height="30" rx="15" fill="#efefef" stroke="#8a8a8a" stroke-width="1.5"/><text x="722.667" y="490" fill="#333333" font-size="15">8.5</text><line x1="352" y1="516" x2="802.667" y2="516" stroke="#e2e2e2" stroke-width="1.5"/><text x="352" y="546" font-size="16" fill="#666666">Introducción a la Psicología</text><rect x="708.667" y="525" width="70" height="30" rx="15" fill="#efefef" stroke="#8a8a8a" stroke-width="1.5"/><text x="722.667" y="546" fill="#333333" font-size="15">9.0</text><line x1="352" y1="572" x2="802.667" y2="572" stroke="#e2e2e2" stroke-width="1.5"/><rect x="850.667" y="392" width="498.667" height="400" rx="10" fill="#ffffff" stroke="#8a8a8a" stroke-width="2"/><rect x="850.667" y="392" width="498.667" height="8" fill="#c9c9c9"/><line x1="850.667" y1="452" x2="1349.33" y2="452" stroke="#d6d6d6" stroke-width="2"/><text x="874.667" y="430" font-size="18" fill="#4d4d4d">Documentos</text><text x="874.667" y="490" font-size="16" fill="#666666">Identificación oficial</text><rect x="1231.33" y="469" width="70" height="30" rx="15" fill="#efefef" stroke="#8a8a8a" stroke-width="1.5"/><text x="1245.33" y="490" fill="#333333" font-size="15">Por vencer</text><line x1="874.667" y1="516" x2="1325.33" y2="516" stroke="#e2e2e2" stroke-width="1.5"/><text x="874.667" y="546" font-size="16" fill="#666666">Comprobante domicilio</text><rect x="1231.33" y="525" width="70" height="30" rx="15" fill="#efefef" stroke="#8a8a8a" stroke-width="1.5"/><text x="1245.33" y="546" fill="#333333" font-size="15">Vigente</text><line x1="874.667" y1="572" x2="1325.33" y2="572" stroke="#e2e2e2" stroke-width="1.5"/><rect x="1373.33" y="392" width="498.667" height="400" rx="10" fill="#ffffff" stroke="#8a8a8a" stroke-width="2"/><rect x="1373.33" y="392" width="498.667" height="8" fill="#c9c9c9"/><line x1="1373.33" y1="452" x2="1872" y2="452" stroke="#d6d6d6" stroke-width="2"/><text x="1397.33" y="430" font-size="18" fill="#4d4d4d">Próximo pago</text><text x="1397.33" y="490" font-size="16" fill="#666666">Colegiatura — julio</text><rect x="1754" y="469" width="70" height="30" rx="15" fill="#efefef" stroke="#8a8a8a" stroke-width="1.5"/><text x="1768" y="490" fill="#333333" font-size="15">15/08/2026</text><line x1="1397.33" y1="516" x2="1848" y2="516" stroke="#e2e2e2" stroke-width="1.5"/><text x="328" y="1050" font-size="15" fill="#9a9a9a">Nota: el número de tarjetas/paneles y sus KPIs varían por rol; la estructura (banner+KPIs+paneles) es idéntica en los 5. Ver matriz-trazabilidad.md.</text>
</svg>
