<svg xmlns="http://www.w3.org/2000/svg" width="100%" height="100%" viewBox="0 0 1920 1080" preserveAspectRatio="xMinYMin meet" style="display:block;max-width:1920px;" font-family="'Comic Sans MS', 'Segoe Print', cursive, sans-serif">
<rect x="0" y="0" width="1920" height="1080" fill="#ffffff"/>
<rect x="0" y="0" width="1920" height="34" fill="#f0f0f0"/><text x="16" y="23" font-size="16" fill="#555555">WIREFRAME — baja fidelidad · Pantalla 20 · Captura de calificaciones</text><rect x="0" y="34" width="280" height="1046" fill="#fafafa" stroke="#8a8a8a" stroke-width="2"/><rect x="24" y="66" width="44" height="44" rx="8" fill="#efefef" stroke="#8a8a8a" stroke-width="2"/><text x="78" y="94" font-size="24" fill="#4d4d4d">UICM</text><line x1="24" y1="130" x2="256" y2="130" stroke="#c9c9c9" stroke-width="2"/><text x="34" y="168" font-size="20" fill="#555555">○ Inicio</text><text x="34" y="216" font-size="20" fill="#555555">○ Aclaraciones</text><text x="34" y="264" font-size="20" fill="#555555">○ Alumnos</text><rect x="16" y="282" width="248" height="46" rx="6" fill="#e2e2e2" stroke="#8a8a8a" stroke-width="2"/><text x="34" y="312" font-size="20" fill="#333333">● Calificaciones</text><text x="34" y="360" font-size="20" fill="#555555">○ Grupos</text><text x="34" y="408" font-size="20" fill="#555555">○ Horario</text><text x="328" y="76" font-size="15" fill="#8a8a8a">CAPTURA DE CALIFICACIONES</text><text x="328" y="100" font-size="34" fill="#333333">Estadística I</text><text x="328" y="128" font-size="16" fill="#8a8a8a">Grupo PSI-2026-1-A</text><rect x="328" y="190" width="1544" height="84" rx="10" fill="#fafafa" stroke="#8a8a8a" stroke-width="1.5" stroke-dasharray="4 3"/><text x="348" y="220" font-size="14" fill="#666666">Una vez enviado, el grupo queda bloqueado para edición hasta que Coordinación lo apruebe o</text><text x="348" y="242" font-size="14" fill="#666666"> lo rechace.</text><rect x="328" y="260" width="1544" height="260" rx="10" fill="#ffffff" stroke="#8a8a8a" stroke-width="2"/><rect x="328" y="260" width="1544" height="52" fill="#efefef"/><text x="352" y="292" font-size="15" fill="#666666">MATRÍCULA</text><text x="738" y="292" font-size="15" fill="#666666">ALUMNO</text><text x="1124" y="292" font-size="15" fill="#666666">CALIFICACIÓN</text><text x="1510" y="292" font-size="15" fill="#666666">ACCIONES</text><line x1="328" y1="312" x2="1872" y2="312" stroke="#e2e2e2" stroke-width="1.5"/><text x="352" y="346" font-size="16" fill="#555555">263120001</text><text x="738" y="346" font-size="16" fill="#555555">Diana Martínez López</text><text x="1124" y="346" font-size="16" fill="#555555">8.5</text><text x="1510" y="346" font-size="15" fill="#8a8a8a"></text><line x1="328" y1="368" x2="1872" y2="368" stroke="#e2e2e2" stroke-width="1.5"/><text x="352" y="402" font-size="16" fill="#555555">263120002</text><text x="738" y="402" font-size="16" fill="#555555">Carlos Hernández Ruiz</text><text x="1124" y="402" font-size="16" fill="#555555">—</text><text x="1510" y="402" font-size="15" fill="#8a8a8a"></text><text x="352" y="458" fill="#bbbbbb" font-size="16">…</text><rect x="328" y="560" width="300" height="48" rx="8" fill="#e6e6e6" stroke="#8a8a8a" stroke-width="2"/><text x="346" y="591" font-size="17" fill="#4d4d4d">Enviar a revisión →</text><text x="328" y="1050" font-size="15" fill="#9a9a9a">Nota: cada celda de calificación es un input numérico (0.0–10.0) editable en la fila.</text>
</svg>
