<svg xmlns="http://www.w3.org/2000/svg" width="2200" height="900" viewBox="0 0 2200 900" font-family="Arial, Helvetica, sans-serif">

  <defs>
    <marker id="genTri" viewBox="0 0 16 12" refX="15" refY="6" markerWidth="14" markerHeight="11" orient="auto-start-reverse">
      <path d="M1,1 L15,6 L1,11 Z" fill="#ffffff" stroke="#0F4229" stroke-width="1.3"/>
    </marker>
  </defs>

  <rect x="0" y="0" width="2200" height="900" fill="#ffffff"/>

  <!-- TITLE -->
  <text x="50" y="40" font-size="26" font-weight="800" fill="#0F4229">UICM — Diagrama de Casos de Uso</text>
  <text x="50" y="64" font-size="13" fill="#6b7280">Actores del sistema y sus funcionalidades</text>
  <text x="2150" y="64" font-size="10.5" font-style="italic" text-anchor="end" fill="#0F4229">↳ Admin hereda los casos de uso de los otros 5 roles (líneas con ►)</text>

  <text x="50" y="95" font-size="12.5" font-weight="800" fill="#1F5FBF" letter-spacing="0.5">ACTORES DEL SISTEMA</text>

  <!-- ================= GENERALIZATION ARCS (Admin -> otros 5 roles) ================= -->
  <g fill="none" stroke="#0F4229" stroke-width="2" marker-end="url(#genTri)">
    <path d="M 2000,155 Q 1850,140 1700,155"/>
    <path d="M 2000,155 Q 1700,125 1400,155"/>
    <path d="M 2000,155 Q 1550,110 1100,155"/>
    <path d="M 2000,155 Q 1400,95 800,155"/>
    <path d="M 2000,155 Q 1250,80 500,155"/>
  </g>

  <!-- ================= ACTORES (muñequitos) ================= -->

  <!-- 0 Aspirante -->
  <g>
    <text x="200" y="168" text-anchor="middle" font-size="10.5" font-weight="700" fill="#b0530a">público (sin cuenta)</text>
    <g stroke="#b0530a" stroke-width="2.5" stroke-linecap="round" fill="none">
      <circle cx="200" cy="188" r="9" fill="#ffffff"/>
      <line x1="200" y1="197" x2="200" y2="222"/>
      <line x1="185" y1="206" x2="215" y2="206"/>
      <line x1="200" y1="222" x2="187" y2="240"/>
      <line x1="200" y1="222" x2="213" y2="240"/>
    </g>
    <text x="200" y="258" text-anchor="middle" font-size="14" font-weight="800" fill="#111827">ASPIRANTE</text>
    <text x="200" y="274" text-anchor="middle" font-size="9.5" fill="#6b7280">Persona externa antes de inscribirse</text>
    <line x1="200" y1="282" x2="200" y2="318" stroke="#b0530a" stroke-width="2"/>
  </g>

  <!-- 1 Alumno -->
  <g>
    <text x="500" y="168" text-anchor="middle" font-size="10.5" font-weight="700" fill="#164a99">rol: alumno</text>
    <g stroke="#164a99" stroke-width="2.5" stroke-linecap="round" fill="none">
      <circle cx="500" cy="188" r="9" fill="#ffffff"/>
      <line x1="500" y1="197" x2="500" y2="222"/>
      <line x1="485" y1="206" x2="515" y2="206"/>
      <line x1="500" y1="222" x2="487" y2="240"/>
      <line x1="500" y1="222" x2="513" y2="240"/>
    </g>
    <text x="500" y="258" text-anchor="middle" font-size="14" font-weight="800" fill="#111827">ALUMNO</text>
    <text x="500" y="274" text-anchor="middle" font-size="9.5" fill="#6b7280">Inscrito, con acceso al portal</text>
    <line x1="500" y1="282" x2="500" y2="318" stroke="#164a99" stroke-width="2"/>
  </g>

  <!-- 2 Profesor -->
  <g>
    <text x="800" y="168" text-anchor="middle" font-size="10.5" font-weight="700" fill="#8a6d0a">rol: profesor</text>
    <g stroke="#8a6d0a" stroke-width="2.5" stroke-linecap="round" fill="none">
      <circle cx="800" cy="188" r="9" fill="#ffffff"/>
      <line x1="800" y1="197" x2="800" y2="222"/>
      <line x1="785" y1="206" x2="815" y2="206"/>
      <line x1="800" y1="222" x2="787" y2="240"/>
      <line x1="800" y1="222" x2="813" y2="240"/>
    </g>
    <text x="800" y="258" text-anchor="middle" font-size="14" font-weight="800" fill="#111827">PROFESOR</text>
    <text x="800" y="274" text-anchor="middle" font-size="9.5" fill="#6b7280">Titular de grupos y materias</text>
    <line x1="800" y1="282" x2="800" y2="318" stroke="#8a6d0a" stroke-width="2"/>
  </g>

  <!-- 3 Finanzas -->
  <g>
    <text x="1100" y="168" text-anchor="middle" font-size="10.5" font-weight="700" fill="#b0530a">rol: finanzas</text>
    <g stroke="#b0530a" stroke-width="2.5" stroke-linecap="round" fill="none">
      <circle cx="1100" cy="188" r="9" fill="#ffffff"/>
      <line x1="1100" y1="197" x2="1100" y2="222"/>
      <line x1="1085" y1="206" x2="1115" y2="206"/>
      <line x1="1100" y1="222" x2="1087" y2="240"/>
      <line x1="1100" y1="222" x2="1113" y2="240"/>
    </g>
    <text x="1100" y="258" text-anchor="middle" font-size="14" font-weight="800" fill="#111827">FINANZAS</text>
    <text x="1100" y="274" text-anchor="middle" font-size="9.5" fill="#6b7280">Valida pagos e ingresos</text>
    <line x1="1100" y1="282" x2="1100" y2="318" stroke="#b0530a" stroke-width="2"/>
  </g>

  <!-- 4 Control Escolar -->
  <g>
    <text x="1400" y="168" text-anchor="middle" font-size="10.5" font-weight="700" fill="#164a99">rol: control_escolar</text>
    <g stroke="#164a99" stroke-width="2.5" stroke-linecap="round" fill="none">
      <circle cx="1400" cy="188" r="9" fill="#ffffff"/>
      <line x1="1400" y1="197" x2="1400" y2="222"/>
      <line x1="1385" y1="206" x2="1415" y2="206"/>
      <line x1="1400" y1="222" x2="1387" y2="240"/>
      <line x1="1400" y1="222" x2="1413" y2="240"/>
    </g>
    <text x="1400" y="258" text-anchor="middle" font-size="14" font-weight="800" fill="#111827">CONTROL ESCOLAR</text>
    <text x="1400" y="274" text-anchor="middle" font-size="9.5" fill="#6b7280">Admisión, alumnos y expedientes</text>
    <line x1="1400" y1="282" x2="1400" y2="318" stroke="#164a99" stroke-width="2"/>
  </g>

  <!-- 5 Coordinación -->
  <g>
    <text x="1700" y="168" text-anchor="middle" font-size="10.5" font-weight="700" fill="#8a6d0a">rol: coordinacion</text>
    <g stroke="#8a6d0a" stroke-width="2.5" stroke-linecap="round" fill="none">
      <circle cx="1700" cy="188" r="9" fill="#ffffff"/>
      <line x1="1700" y1="197" x2="1700" y2="222"/>
      <line x1="1685" y1="206" x2="1715" y2="206"/>
      <line x1="1700" y1="222" x2="1687" y2="240"/>
      <line x1="1700" y1="222" x2="1713" y2="240"/>
    </g>
    <text x="1700" y="258" text-anchor="middle" font-size="14" font-weight="800" fill="#111827">COORDINACIÓN</text>
    <text x="1700" y="274" text-anchor="middle" font-size="9.5" fill="#6b7280">Estructura académica y catálogos</text>
    <line x1="1700" y1="282" x2="1700" y2="318" stroke="#8a6d0a" stroke-width="2"/>
  </g>

  <!-- 6 Admin (superusuario) -->
  <g>
    <text x="2000" y="168" text-anchor="middle" font-size="10.5" font-weight="700" fill="#0F4229">rol: admin (superusuario)</text>
    <g stroke="#0F4229" stroke-width="3" stroke-linecap="round" fill="none">
      <circle cx="2000" cy="188" r="9" fill="#ffffff"/>
      <line x1="2000" y1="197" x2="2000" y2="222"/>
      <line x1="1985" y1="206" x2="2015" y2="206"/>
      <line x1="2000" y1="222" x2="1987" y2="240"/>
      <line x1="2000" y1="222" x2="2013" y2="240"/>
    </g>
    <text x="2000" y="258" text-anchor="middle" font-size="14" font-weight="800" fill="#111827">ADMIN</text>
    <text x="2000" y="274" text-anchor="middle" font-size="9.5" fill="#6b7280">Acceso irrestricto a todo el sistema</text>
    <line x1="2000" y1="282" x2="2000" y2="318" stroke="#0F4229" stroke-width="3"/>
  </g>

  <!-- ================= LÍMITE DEL SISTEMA ================= -->
  <rect x="40" y="288" width="2120" height="500" rx="16" fill="#ffffff" stroke="#111827" stroke-width="2"/>
  <text x="56" y="308" font-size="12" font-weight="700" fill="#111827">SISTEMA INTEGRAL DE GESTIÓN — UICM (límite del sistema)</text>

  <!-- ===== Lane 0: Aspirante ===== -->
  <g>
    <rect x="60" y="318" width="280" height="452" rx="14" fill="#fef4e3" stroke="#b0530a" stroke-width="2"/>
    <text x="200" y="342" text-anchor="middle" font-size="12.5" font-weight="800" fill="#b0530a">ASPIRANTE</text>

    <g font-size="9.5" fill="#111827">
      <ellipse cx="200" cy="380" rx="120" ry="20" fill="#ffffff" stroke="#b0530a" stroke-width="1.5"/>
      <text x="200" y="384" text-anchor="middle">Registrarse como aspirante</text>

      <ellipse cx="200" cy="430" rx="120" ry="20" fill="#ffffff" stroke="#b0530a" stroke-width="1.5"/>
      <text x="200" y="434" text-anchor="middle">Dar seguimiento a solicitud</text>

      <ellipse cx="200" cy="480" rx="120" ry="20" fill="#ffffff" stroke="#b0530a" stroke-width="1.5"/>
      <text x="200" y="484" text-anchor="middle">Pagar ficha de inscripción</text>

      <ellipse cx="200" cy="530" rx="120" ry="20" fill="#ffffff" stroke="#b0530a" stroke-width="1.5"/>
      <text x="200" y="534" text-anchor="middle">Ver resultado de admisión</text>
    </g>
  </g>

  <!-- ===== Lane 1: Alumno ===== -->
  <g>
    <rect x="360" y="318" width="280" height="452" rx="14" fill="#eaf2fd" stroke="#164a99" stroke-width="2"/>
    <text x="500" y="342" text-anchor="middle" font-size="12.5" font-weight="800" fill="#164a99">ALUMNO</text>

    <g font-size="9.5" fill="#111827">
      <ellipse cx="500" cy="380" rx="120" ry="20" fill="#ffffff" stroke="#164a99" stroke-width="1.5"/>
      <text x="500" y="384" text-anchor="middle">Consultar dashboard</text>

      <ellipse cx="500" cy="430" rx="120" ry="20" fill="#ffffff" stroke="#164a99" stroke-width="1.5"/>
      <text x="500" y="434" text-anchor="middle">Ver materias y horario</text>

      <ellipse cx="500" cy="480" rx="120" ry="20" fill="#ffffff" stroke="#164a99" stroke-width="1.5"/>
      <text x="500" y="484" text-anchor="middle">Consultar e imprimir kárdex</text>

      <ellipse cx="500" cy="530" rx="120" ry="20" fill="#ffffff" stroke="#164a99" stroke-width="1.5"/>
      <text x="500" y="534" text-anchor="middle">Gestionar documentos</text>

      <ellipse cx="500" cy="580" rx="120" ry="20" fill="#ffffff" stroke="#164a99" stroke-width="1.5"/>
      <text x="500" y="584" text-anchor="middle">Consultar y pagar finanzas</text>

      <ellipse cx="500" cy="630" rx="120" ry="20" fill="#ffffff" stroke="#164a99" stroke-width="1.5"/>
      <text x="500" y="634" text-anchor="middle">Descargar comprobante de pago</text>

      <ellipse cx="500" cy="680" rx="120" ry="20" fill="#ffffff" stroke="#164a99" stroke-width="1.5"/>
      <text x="500" y="684" text-anchor="middle">Actualizar foto y contraseña</text>
    </g>
  </g>

  <!-- ===== Lane 2: Profesor ===== -->
  <g>
    <rect x="660" y="318" width="280" height="452" rx="14" fill="#fdf3d0" stroke="#8a6d0a" stroke-width="2"/>
    <text x="800" y="342" text-anchor="middle" font-size="12.5" font-weight="800" fill="#8a6d0a">PROFESOR</text>

    <g font-size="9.5" fill="#111827">
      <ellipse cx="800" cy="380" rx="120" ry="20" fill="#ffffff" stroke="#8a6d0a" stroke-width="1.5"/>
      <text x="800" y="384" text-anchor="middle">Consultar grupos y alumnos</text>

      <ellipse cx="800" cy="430" rx="120" ry="20" fill="#ffffff" stroke="#8a6d0a" stroke-width="1.5"/>
      <text x="800" y="434" text-anchor="middle">Consultar horario</text>

      <ellipse cx="800" cy="480" rx="120" ry="20" fill="#ffffff" stroke="#8a6d0a" stroke-width="1.5"/>
      <text x="800" y="484" text-anchor="middle">Capturar calificaciones</text>

      <ellipse cx="800" cy="530" rx="120" ry="20" fill="#ffffff" stroke="#8a6d0a" stroke-width="1.5"/>
      <text x="800" y="534" text-anchor="middle">Solicitar aclaración</text>

      <ellipse cx="800" cy="580" rx="120" ry="20" fill="#ffffff" stroke="#8a6d0a" stroke-width="1.5"/>
      <text x="800" y="584" text-anchor="middle">Actualizar foto y contraseña</text>
    </g>
  </g>

  <!-- ===== Lane 3: Finanzas ===== -->
  <g>
    <rect x="960" y="318" width="280" height="452" rx="14" fill="#fef4e3" stroke="#b0530a" stroke-width="2"/>
    <text x="1100" y="342" text-anchor="middle" font-size="12.5" font-weight="800" fill="#b0530a">FINANZAS</text>

    <g font-size="9.5" fill="#111827">
      <ellipse cx="1100" cy="380" rx="120" ry="20" fill="#ffffff" stroke="#b0530a" stroke-width="1.5"/>
      <text x="1100" y="384" text-anchor="middle">Validar o rechazar pagos</text>

      <ellipse cx="1100" cy="430" rx="120" ry="20" fill="#ffffff" stroke="#b0530a" stroke-width="1.5"/>
      <text x="1100" y="434" text-anchor="middle">Exportar pagos</text>

      <ellipse cx="1100" cy="480" rx="120" ry="20" fill="#ffffff" stroke="#b0530a" stroke-width="1.5"/>
      <text x="1100" y="484" text-anchor="middle">Ver estadísticas financieras</text>

      <ellipse cx="1100" cy="530" rx="120" ry="20" fill="#ffffff" stroke="#b0530a" stroke-width="1.5"/>
      <text x="1100" y="534" text-anchor="middle">Ver alumnos al corriente</text>

      <ellipse cx="1100" cy="580" rx="120" ry="20" fill="#ffffff" stroke="#b0530a" stroke-width="1.5"/>
      <text x="1100" y="584" text-anchor="middle">Gestionar tarifas</text>
    </g>
  </g>

  <!-- ===== Lane 4: Control Escolar ===== -->
  <g>
    <rect x="1260" y="318" width="280" height="452" rx="14" fill="#eaf2fd" stroke="#164a99" stroke-width="2"/>
    <text x="1400" y="342" text-anchor="middle" font-size="12.5" font-weight="800" fill="#164a99">CONTROL ESCOLAR</text>

    <g font-size="9.5" fill="#111827">
      <ellipse cx="1400" cy="380" rx="120" ry="20" fill="#ffffff" stroke="#164a99" stroke-width="1.5"/>
      <text x="1400" y="384" text-anchor="middle">Aprobar o rechazar aspirantes</text>

      <ellipse cx="1400" cy="430" rx="120" ry="20" fill="#ffffff" stroke="#164a99" stroke-width="1.5"/>
      <text x="1400" y="434" text-anchor="middle">Gestionar inscripciones</text>

      <ellipse cx="1400" cy="480" rx="120" ry="20" fill="#ffffff" stroke="#164a99" stroke-width="1.5"/>
      <text x="1400" y="484" text-anchor="middle">Gestionar alumnos</text>

      <ellipse cx="1400" cy="530" rx="120" ry="20" fill="#ffffff" stroke="#164a99" stroke-width="1.5"/>
      <text x="1400" y="534" text-anchor="middle">Consultar expedientes</text>

      <ellipse cx="1400" cy="580" rx="120" ry="20" fill="#ffffff" stroke="#164a99" stroke-width="1.5"/>
      <text x="1400" y="584" text-anchor="middle">Atender solicitudes de acceso</text>

      <ellipse cx="1400" cy="630" rx="120" ry="20" fill="#ffffff" stroke="#164a99" stroke-width="1.5"/>
      <text x="1400" y="634" text-anchor="middle">Gestionar reinscripciones</text>
    </g>
  </g>

  <!-- ===== Lane 5: Coordinación ===== -->
  <g>
    <rect x="1560" y="318" width="280" height="452" rx="14" fill="#fdf3d0" stroke="#8a6d0a" stroke-width="2"/>
    <text x="1700" y="342" text-anchor="middle" font-size="12.5" font-weight="800" fill="#8a6d0a">COORDINACIÓN</text>

    <g font-size="9.5" fill="#111827">
      <ellipse cx="1700" cy="380" rx="120" ry="20" fill="#ffffff" stroke="#8a6d0a" stroke-width="1.5"/>
      <text x="1700" y="384" text-anchor="middle">Gestionar programas y materias</text>

      <ellipse cx="1700" cy="430" rx="120" ry="20" fill="#ffffff" stroke="#8a6d0a" stroke-width="1.5"/>
      <text x="1700" y="434" text-anchor="middle">Gestionar profesores y acceso</text>

      <ellipse cx="1700" cy="480" rx="120" ry="20" fill="#ffffff" stroke="#8a6d0a" stroke-width="1.5"/>
      <text x="1700" y="484" text-anchor="middle">Revisar calificaciones</text>

      <ellipse cx="1700" cy="530" rx="120" ry="20" fill="#ffffff" stroke="#8a6d0a" stroke-width="1.5"/>
      <text x="1700" y="534" text-anchor="middle">Gestionar aclaraciones</text>

      <ellipse cx="1700" cy="580" rx="120" ry="20" fill="#ffffff" stroke="#8a6d0a" stroke-width="1.5"/>
      <text x="1700" y="584" text-anchor="middle">Atender solicitudes de acceso</text>

      <ellipse cx="1700" cy="630" rx="120" ry="20" fill="#ffffff" stroke="#8a6d0a" stroke-width="1.5"/>
      <text x="1700" y="634" text-anchor="middle">Carga académica y horarios</text>

      <ellipse cx="1700" cy="680" rx="120" ry="20" fill="#ffffff" stroke="#8a6d0a" stroke-width="1.5"/>
      <text x="1700" y="684" text-anchor="middle">Alta masiva de alumnos</text>

      <ellipse cx="1700" cy="730" rx="120" ry="20" fill="#ffffff" stroke="#8a6d0a" stroke-width="1.5"/>
      <text x="1700" y="734" text-anchor="middle">Gestionar periodos y grupos</text>
    </g>
  </g>

  <!-- ===== Lane 6: Admin (superusuario) ===== -->
  <g>
    <rect x="1860" y="318" width="280" height="452" rx="14" fill="#f0f9f4" stroke="#0F4229" stroke-width="3"/>
    <text x="2000" y="342" text-anchor="middle" font-size="12.5" font-weight="800" fill="#0F4229">ADMIN</text>

    <g font-size="9.5" fill="#111827">
      <ellipse cx="2000" cy="380" rx="120" ry="20" fill="#ffffff" stroke="#0F4229" stroke-width="1.5"/>
      <text x="2000" y="384" text-anchor="middle">Gestionar usuarios del sistema</text>

      <ellipse cx="2000" cy="430" rx="120" ry="20" fill="#ffffff" stroke="#0F4229" stroke-width="1.5"/>
      <text x="2000" y="434" text-anchor="middle">Configurar APIs externas</text>

      <ellipse cx="2000" cy="480" rx="120" ry="20" fill="#ffffff" stroke="#0F4229" stroke-width="1.5"/>
      <text x="2000" y="484" text-anchor="middle">Gestionar página principal</text>

      <ellipse cx="2000" cy="530" rx="120" ry="20" fill="#ffffff" stroke="#0F4229" stroke-width="1.5"/>
      <text x="2000" y="534" text-anchor="middle">Gestionar mensajes de contacto</text>

      <ellipse cx="2000" cy="580" rx="120" ry="20" fill="#ffffff" stroke="#0F4229" stroke-width="1.5"/>
      <text x="2000" y="584" text-anchor="middle">Notificar a departamentos</text>
    </g>

    <line x1="1880" y1="613" x2="2120" y2="613" stroke="#0F4229" stroke-width="1" stroke-dasharray="4,3"/>
    <text x="2000" y="633" text-anchor="middle" font-size="9.5" font-weight="800" fill="#0F4229">+ TODOS LOS CASOS DE USO DE:</text>

    <g font-size="9.5" fill="#0F4229" font-weight="700">
      <rect x="1910" y="641" width="180" height="18" rx="9" fill="#ffffff" stroke="#0F4229" stroke-width="1"/>
      <text x="2000" y="654" text-anchor="middle">Alumno</text>

      <rect x="1910" y="663" width="180" height="18" rx="9" fill="#ffffff" stroke="#0F4229" stroke-width="1"/>
      <text x="2000" y="676" text-anchor="middle">Profesor</text>

      <rect x="1910" y="685" width="180" height="18" rx="9" fill="#ffffff" stroke="#0F4229" stroke-width="1"/>
      <text x="2000" y="698" text-anchor="middle">Finanzas</text>

      <rect x="1910" y="707" width="180" height="18" rx="9" fill="#ffffff" stroke="#0F4229" stroke-width="1"/>
      <text x="2000" y="720" text-anchor="middle">Control Escolar</text>

      <rect x="1910" y="729" width="180" height="18" rx="9" fill="#ffffff" stroke="#0F4229" stroke-width="1"/>
      <text x="2000" y="742" text-anchor="middle">Coordinación</text>
    </g>
  </g>

  <!-- ================= LEGEND ================= -->
  <text x="50" y="808" font-size="12" font-weight="800" fill="#111827">SIMBOLOGÍA</text>

  <g stroke="#374151" stroke-width="2.2" stroke-linecap="round" fill="none">
    <circle cx="65" cy="822" r="5" fill="#ffffff"/>
    <line x1="65" y1="827" x2="65" y2="838"/>
    <line x1="58" y1="831" x2="72" y2="831"/>
    <line x1="65" y1="838" x2="59" y2="845"/>
    <line x1="65" y1="838" x2="71" y2="845"/>
  </g>
  <text x="90" y="838" font-size="11" fill="#374151">Actor / Rol</text>

  <ellipse cx="330" cy="830" rx="35" ry="13" fill="#ffffff" stroke="#6b7280" stroke-width="1.5"/>
  <text x="380" y="834" font-size="11" fill="#374151">Caso de uso</text>

  <rect x="560" y="818" width="50" height="24" rx="6" fill="#ffffff" stroke="#111827" stroke-width="2"/>
  <text x="625" y="834" font-size="11" fill="#374151">Límite del sistema</text>

  <line x1="850" y1="830" x2="910" y2="830" stroke="#0F4229" stroke-width="2" marker-end="url(#genTri)"/>
  <text x="925" y="834" font-size="11" fill="#374151">Generalización — Admin hereda</text>

  <line x1="1300" y1="830" x2="1360" y2="830" stroke="#6b7280" stroke-width="2"/>
  <text x="1375" y="834" font-size="11" fill="#374151">Actor asociado a sus casos de uso</text>

  <text x="50" y="875" font-size="10" fill="#9ca3af">Sistema Integral de Gestión para la UICM · 7 actores (6 roles + público) · 40 casos de uso agrupados por rol · Admin es superusuario: accede a todos los módulos vía bypass de rol en CheckRol middleware</text>

</svg>
